<svg xmlns="http://www.w3.org/2000/svg" xmlns:xlink="http://www.w3.org/1999/xlink" version="1.1" width="256" height="256" viewBox="0 0 256 256" xml:space="preserve">

<defs>
</defs>
    <g style="stroke: none; stroke-width: 0; stroke-dasharray: none; stroke-linecap: butt; stroke-linejoin: miter; stroke-miterlimit: 10; fill: none; fill-rule: nonzero; opacity: 1;" transform="translate(1.4065934065934016 1.4065934065934016) scale(2.81 2.81)" >
	<path d="M 0.164 64.582 c 0.273 -0.436 0.709 -0.464 1.309 -0.082 c 13.636 7.909 28.473 11.864 44.509 11.864 c 10.691 0 21.245 -1.991 31.664 -5.973 c 0.273 -0.109 0.668 -0.273 1.186 -0.491 c 0.518 -0.218 0.886 -0.382 1.105 -0.491 c 0.818 -0.327 1.459 -0.164 1.923 0.491 c 0.464 0.655 0.314 1.255 -0.45 1.8 c -0.982 0.709 -2.236 1.527 -3.764 2.455 c -4.691 2.782 -9.927 4.936 -15.709 6.464 C 56.155 82.145 50.509 82.909 45 82.909 c -8.509 0 -16.555 -1.486 -24.136 -4.459 c -7.582 -2.973 -14.373 -7.159 -20.373 -12.559 C 0.164 65.618 0 65.345 0 65.073 C 0 64.909 0.054 64.745 0.164 64.582 z" style="stroke: none; stroke-width: 1; stroke-dasharray: none; stroke-linecap: butt; stroke-linejoin: miter; stroke-miterlimit: 10; fill: rgb(246,166,31); fill-rule: nonzero; opacity: 1;" transform=" matrix(1 0 0 1 0 0) " stroke-linecap="round" />
        <path d="M 73.227 65.973 c 0.109 -0.218 0.273 -0.436 0.491 -0.655 c 1.364 -0.927 2.673 -1.555 3.927 -1.882 c 2.073 -0.545 4.091 -0.845 6.055 -0.9 c 0.545 -0.055 1.064 -0.027 1.555 0.082 c 2.455 0.218 3.927 0.627 4.418 1.227 C 89.891 64.173 90 64.664 90 65.318 v 0.573 c 0 1.909 -0.518 4.159 -1.555 6.75 c -1.036 2.591 -2.482 4.677 -4.336 6.259 c -0.273 0.218 -0.518 0.327 -0.736 0.327 c -0.109 0 -0.218 -0.027 -0.327 -0.082 c -0.327 -0.164 -0.409 -0.464 -0.245 -0.9 c 2.018 -4.745 3.027 -8.045 3.027 -9.9 c 0 -0.6 -0.109 -1.036 -0.327 -1.309 c -0.545 -0.655 -2.073 -0.982 -4.582 -0.982 c -0.927 0 -2.018 0.055 -3.273 0.164 c -1.364 0.164 -2.618 0.327 -3.764 0.491 c -0.327 0 -0.545 -0.055 -0.655 -0.164 c -0.109 -0.109 -0.136 -0.218 -0.082 -0.327 C 73.145 66.164 73.173 66.082 73.227 65.973 z" style="stroke: none; stroke-width: 1; stroke-dasharray: none; stroke-linecap: butt; stroke-linejoin: miter; stroke-miterlimit: 10; fill: rgb(246,166,31); fill-rule: nonzero; opacity: 1;" transform=" matrix(1 0 0 1 0 0) " stroke-linecap="round" />
        <path d="M 24.791 47.264 c 0 -3.764 0.927 -6.982 2.782 -9.655 c 1.854 -2.673 4.391 -4.691 7.609 -6.055 c 2.945 -1.255 6.573 -2.155 10.882 -2.7 c 1.473 -0.164 3.873 -0.382 7.2 -0.655 v -1.391 c 0 -3.491 -0.382 -5.836 -1.145 -7.036 c -1.145 -1.636 -2.945 -2.455 -5.4 -2.455 h -0.655 c -1.8 0.164 -3.355 0.736 -4.664 1.718 c -1.309 0.982 -2.155 2.345 -2.536 4.091 c -0.218 1.091 -0.764 1.718 -1.636 1.882 l -9.409 -1.145 c -0.927 -0.218 -1.391 -0.709 -1.391 -1.473 c 0 -0.164 0.027 -0.355 0.082 -0.573 c 0.927 -4.855 3.204 -8.455 6.832 -10.8 c 3.627 -2.345 7.868 -3.655 12.723 -3.927 h 2.045 c 6.218 0 11.073 1.609 14.564 4.827 c 0.548 0.548 1.054 1.136 1.514 1.759 c 0.464 0.627 0.832 1.186 1.105 1.677 c 0.273 0.491 0.518 1.2 0.736 2.127 c 0.218 0.927 0.382 1.568 0.491 1.923 c 0.109 0.355 0.191 1.118 0.245 2.291 c 0.054 1.173 0.082 1.868 0.082 2.086 v 19.8 c 0 1.418 0.205 2.714 0.614 3.886 s 0.805 2.018 1.186 2.536 c 0.382 0.518 1.009 1.35 1.882 2.495 c 0.327 0.491 0.491 0.927 0.491 1.309 c 0 0.436 -0.218 0.818 -0.655 1.145 c -4.527 3.927 -6.982 6.055 -7.364 6.382 c -0.655 0.491 -1.445 0.545 -2.373 0.164 c -0.764 -0.655 -1.432 -1.282 -2.005 -1.882 c -0.573 -0.6 -0.982 -1.036 -1.227 -1.309 s -0.641 -0.805 -1.186 -1.595 c -0.545 -0.791 -0.927 -1.323 -1.145 -1.595 c -3.055 3.327 -6.055 5.4 -9 6.218 c -1.855 0.545 -4.145 0.818 -6.873 0.818 c -4.2 0 -7.65 -1.295 -10.35 -3.886 C 26.141 55.677 24.791 52.009 24.791 47.264 z M 38.864 45.627 c 0 2.127 0.532 3.832 1.595 5.114 s 2.495 1.923 4.295 1.923 c 0.164 0 0.395 -0.027 0.695 -0.082 c 0.3 -0.055 0.504 -0.082 0.614 -0.082 c 2.291 -0.6 4.064 -2.073 5.318 -4.418 c 0.6 -1.036 1.05 -2.168 1.35 -3.395 c 0.3 -1.227 0.464 -2.223 0.491 -2.986 c 0.027 -0.764 0.041 -2.018 0.041 -3.764 v -2.045 c -3.164 0 -5.564 0.218 -7.2 0.655 C 41.264 37.909 38.864 40.936 38.864 45.627 z" style="stroke: none; stroke-width: 1; stroke-dasharray: none; stroke-linecap: butt; stroke-linejoin: miter; stroke-miterlimit: 10; fill: rgb(0,0,0); fill-rule: nonzero; opacity: 1;" transform=" matrix(1 0 0 1 0 0) " stroke-linecap="round" />
</g>
</svg>