<svg t="1698160726847" class="icon" viewBox="0 0 1063 1024" version="1.1" xmlns="http://www.w3.org/2000/svg" p-id="11514" width="200" height="200"><path d="M148.286035 123.150863m209.574534 0l394.472988 0q209.574535 0 209.574535 209.574535l0 394.472988q0 209.574535-209.574535 209.574535l-394.472988 0q-209.574535 0-209.574534-209.574535l0-394.472988q0-209.574535 209.574534-209.574535Z" fill="#A064FF" p-id="11515"></path><path d="M477.568258 656.38377a44.761264 44.761264 0 0 1 31.447658 12.739745 38.907868 38.907868 0 0 1 9.526115 14.231787 46.482851 46.482851 0 0 1 0 34.431741 41.432863 41.432863 0 0 1-9.526115 14.231787 46.712396 46.712396 0 0 1-14.346559 9.526115 42.69536 42.69536 0 0 1-34.431742 0 48.548756 48.548756 0 0 1-14.117014-9.526115 39.826048 39.826048 0 0 1-9.985205-14.117014 44.761264 44.761264 0 0 1-3.098857-17.789734 45.908989 45.908989 0 0 1 3.328402-17.21587 41.432863 41.432863 0 0 1 9.526115-14.231787 46.712396 46.712396 0 0 1 14.117014-9.411343 43.498767 43.498767 0 0 1 17.560188-3.328401z m198.785923 0.91818a47.630576 47.630576 0 0 1 17.445416 3.328402 41.547635 41.547635 0 0 1 14.346559 9.411343 43.61354 43.61354 0 0 1 9.526115 14.231786 42.465815 42.465815 0 0 1 0 34.431742 42.006725 42.006725 0 0 1-9.526115 14.117014 45.105582 45.105582 0 0 1-14.346559 9.640888 43.15445 43.15445 0 0 1-17.445416 3.557947 40.285138 40.285138 0 0 1-17.215871-3.557947 47.515804 47.515804 0 0 1-14.117014-9.640888 45.908989 45.908989 0 0 1-9.526116-14.117014 42.69536 42.69536 0 0 1-3.672719-17.330643 41.77718 41.77718 0 0 1 3.672719-17.215871 47.630576 47.630576 0 0 1 9.526116-14.231787 43.498767 43.498767 0 0 1 14.117014-9.411343 46.827169 46.827169 0 0 1 17.215871-3.328401z m80.34073-272.928939a49.007846 49.007846 0 0 1 20.88859 3.672719 25.020399 25.020399 0 0 1 10.559068 8.83748 20.88859 20.88859 0 0 1 2.869312 11.477247 38.907868 38.907868 0 0 1-1.721587 10.329523c-5.279534 15.838601-10.67384 31.56243-16.297691 47.401031-3.787492 10.788612-7.574983 21.34768-11.477248 31.906747-2.984084 8.263618-5.738624 16.642009-8.37839 25.020399a53.3692 53.3692 0 0 1-15.838601 26.627214 36.727191 36.727191 0 0 1-22.954495 7.460211H463.221699l7.345438 43.039677h241.022193c15.264739 0 22.954495 6.542031 22.954494 19.740865a29.381753 29.381753 0 0 1-4.590899 16.527236 19.97041 19.97041 0 0 1-17.904505 7.001121H461.270567a28.234028 28.234028 0 0 1-16.068146-4.361354 34.431742 34.431742 0 0 1-10.67384-11.477247 64.961219 64.961219 0 0 1-7.001121-15.149967 142.317866 142.317866 0 0 1-4.017036-15.264738c0-1.951132-1.262497-6.656803-2.639767-14.002242s-3.213629-16.527236-5.279534-27.545393-4.590899-24.676082-6.886348-37.071509-5.049989-27.315848-7.689756-41.088545q-9.181798-48.548756-20.544273-108.115669H344.317418a18.937458 18.937458 0 0 1-11.477248-3.557947 34.431742 34.431742 0 0 1-8.034073-8.722708 31.218113 31.218113 0 0 1-4.246581-10.788612 48.204438 48.204438 0 0 1-1.147725-10.67384 20.773818 20.773818 0 0 1 6.427259-15.838602 23.757902 23.757902 0 0 1 17.445415-6.197713h48.319211a33.513562 33.513562 0 0 1 15.264739 2.869312 26.397669 26.397669 0 0 1 9.067025 7.230666 31.56243 31.56243 0 0 1 4.820444 9.067025c0.91818 3.213629 1.721587 5.968169 2.410222 8.148845s1.262497 6.197714 1.951132 10.788613l1.951132 14.231786c0.91818 5.738624 1.951132 11.477247 2.869312 18.248824z" fill="#FFFFFF" p-id="11516"></path></svg>