<svg t="1698198966862" class="icon" viewBox="0 0 1024 1024" version="1.1" xmlns="http://www.w3.org/2000/svg" p-id="4965" width="400" height="400"><path d="M76.992014 63.999998A16 16 0 0 0 64.000014 79.999998v863.999973a16 16 0 0 0 15.999999 15.999999h863.999974a16 16 0 0 0 15.999999-15.999999v-863.999973a16 16 0 0 0-15.999999-16h-863.999974a16 16 0 0 0-3.007999 0zM96.000013 95.999997h831.999974v95.999997H96.000013V95.999997z m44.991999 31.999999A16 16 0 0 0 128.000012 143.999996a16 16 0 0 0 15.999999 15.999999 16 16 0 0 0 16-15.999999 16 16 0 0 0-16-16 16 16 0 0 0-3.007999 0z m63.999998 0A16 16 0 0 0 192.00001 143.999996a16 16 0 0 0 15.999999 15.999999 16 16 0 0 0 16-15.999999 16 16 0 0 0-16-16 16 16 0 0 0-3.007999 0z m63.999998 0A16 16 0 0 0 256.000008 143.999996a16 16 0 0 0 15.999999 15.999999 16 16 0 0 0 16-15.999999 16 16 0 0 0-16-16 16 16 0 0 0-3.007999 0zM96.000013 223.999993h831.999974v703.999978H96.000013V223.999993z m155.999995 127.999996v31.999999h55.007998l78.975998 327.99999c-20.159999 10.816-33.983999 31.679999-33.983999 55.999998 0 35.135999 28.863999 63.999998 63.999998 63.999998 35.135999 0 63.999998-28.863999 63.999998-63.999998 0-11.616-3.52-22.591999-8.992-31.999999h81.983998A63.871998 63.871998 0 0 0 543.999999 767.999976c0 35.135999 28.863999 63.999998 63.999998 63.999998 35.135999 0 63.999998-28.863999 63.999998-63.999998 0-35.135999-28.863999-63.999998-63.999998-63.999998a16 16 0 0 0-4 0h-187.007994l-15.008-63.999998h235.007993a16 16 0 0 0 16-11.008l62.015998-191.999994a16 16 0 0 0-15.008-20.991999h-351.999989l-12-51.007998A16 16 0 0 0 319.008006 351.999989a16 16 0 0 0-1.024 0H252.000008z m103.999997 95.999997h321.98399l-9.984 31.999999H512v31.999999h144.991995l-9.983999 31.999999H543.999999v31.999999h91.999997l-10.016 31.999999h-231.999992l-37.983999-159.999995zM416.000003 735.999977c17.823999 0 31.999999 14.144 31.999999 31.999999s-14.176 31.999999-31.999999 31.999999c-17.823999 0-31.999999-14.144-31.999999-31.999999s14.176-31.999999 31.999999-31.999999z m189.983994 0H607.999997c17.823999 0 31.999999 14.144 31.999999 31.999999s-14.176 31.999999-31.999999 31.999999c-17.823999 0-31.999999-14.144-31.999999-31.999999 0-17.151999 13.152-30.943999 29.983999-31.999999z" p-id="4966" fill="#1296db"></path></svg>