<svg id="Capa_1" enable-background="new 0 0 512 512" height="512" viewBox="0 0 512 512" width="512" xmlns="http://www.w3.org/2000/svg"><g fill="#fab41d"><path id="path28" d="m255.946 172.365c11.995 0 21.87-6.227 23.205-14.294l11.855-133.952c0-13.243-15.509-24.119-35.024-24.119-19.478 0-34.965 10.876-34.965 24.118l11.83 133.952c1.306 8.067 11.191 14.294 23.142 14.294h-.043"/><path id="path30" d="m183.543 214.213c6.02-10.375 5.554-22.049-.781-27.226l-110.104-77.22c-11.438-6.625-28.612 1.35-38.354 18.242-9.772 16.87-8.041 35.723 3.393 42.339l121.901 56.763c7.633 2.838 18.007-2.598 23.99-12.971z"/><path id="path32" d="m328.4 214.14c6.005 10.373 16.345 15.809 23.979 12.971l121.919-56.764c11.481-6.616 13.128-25.469 3.422-42.339-9.787-16.892-26.979-24.866-38.395-18.242l-110.108 77.221c-6.298 5.177-6.764 16.85-.774 27.226z"/><path id="path34" d="m255.946 339.68c11.995 0 21.87 6.197 23.205 14.258l11.856 133.944c0 13.264-15.509 24.118-35.024 24.118-19.478 0-34.965-10.854-34.965-24.118l11.83-133.944c1.306-8.06 11.192-14.258 23.142-14.258z"/><path id="path36" d="m328.4 297.847c6.005-10.393 16.345-15.79 23.979-12.917l121.919 56.699c11.481 6.641 13.128 25.504 3.422 42.392-9.787 16.838-26.979 24.838-38.395 18.235l-110.108-77.162c-6.298-5.237-6.764-16.901-.774-27.268z"/><path id="path38" d="m183.543 297.826c6.02 10.367 5.554 22.03-.781 27.268l-110.104 77.162c-11.438 6.603-28.612-1.397-38.354-18.235-9.772-16.888-8.041-35.75 3.393-42.392l121.901-56.699c7.633-2.873 18.007 2.524 23.997 12.917z"/></g></svg>